<mxfile host="www.draw.io" modified="2023-03-27T15:40:21.917Z" agent="Mozilla/5.0 (X11; Linux x86_64; rv:109.0) Gecko/20100101 Firefox/111.0" etag="C56QjkqkumKZ5X7L8PLy" version="21.1.1" type="device">
  <diagram name="Page-1" id="hU9kqBMwqJOLjtq3L7Bh">
    <mxGraphModel dx="1674" dy="788" grid="1" gridSize="10" guides="1" tooltips="1" connect="1" arrows="1" fold="1" page="1" pageScale="1" pageWidth="850" pageHeight="1100" math="0" shadow="0">
      <root>
        <mxCell id="0" />
        <mxCell id="1" parent="0" />
        <mxCell id="Kgd_H5qakL64mO-A8GvS-11" style="rounded=0;orthogonalLoop=1;jettySize=auto;html=1;entryX=0;entryY=0.5;entryDx=0;entryDy=0;endArrow=none;endFill=0;" parent="1" source="Kgd_H5qakL64mO-A8GvS-1" target="Kgd_H5qakL64mO-A8GvS-10" edge="1">
          <mxGeometry relative="1" as="geometry" />
        </mxCell>
        <mxCell id="Kgd_H5qakL64mO-A8GvS-15" style="rounded=0;orthogonalLoop=1;jettySize=auto;html=1;entryX=0;entryY=0.5;entryDx=0;entryDy=0;endArrow=none;endFill=0;exitX=0.5;exitY=1;exitDx=0;exitDy=0;" parent="1" source="Kgd_H5qakL64mO-A8GvS-1" target="Kgd_H5qakL64mO-A8GvS-13" edge="1">
          <mxGeometry relative="1" as="geometry" />
        </mxCell>
        <mxCell id="Kgd_H5qakL64mO-A8GvS-19" value="включил в состав" style="edgeLabel;html=1;align=center;verticalAlign=middle;resizable=0;points=[];rotation=23;" parent="Kgd_H5qakL64mO-A8GvS-15" vertex="1" connectable="0">
          <mxGeometry x="0.1462" relative="1" as="geometry">
            <mxPoint x="17" y="-3" as="offset" />
          </mxGeometry>
        </mxCell>
        <mxCell id="Kgd_H5qakL64mO-A8GvS-31" style="rounded=0;orthogonalLoop=1;jettySize=auto;html=1;endArrow=none;endFill=0;entryX=0;entryY=0.5;entryDx=0;entryDy=0;" parent="1" source="Kgd_H5qakL64mO-A8GvS-1" target="Kgd_H5qakL64mO-A8GvS-32" edge="1">
          <mxGeometry relative="1" as="geometry" />
        </mxCell>
        <mxCell id="Kgd_H5qakL64mO-A8GvS-1" value="Руководитель" style="whiteSpace=wrap;html=1;" parent="1" vertex="1">
          <mxGeometry x="30" y="300" width="120" height="60" as="geometry" />
        </mxCell>
        <mxCell id="Kgd_H5qakL64mO-A8GvS-16" style="rounded=0;orthogonalLoop=1;jettySize=auto;html=1;entryX=1;entryY=0.5;entryDx=0;entryDy=0;endArrow=none;endFill=0;exitX=0.25;exitY=1;exitDx=0;exitDy=0;" parent="1" source="Kgd_H5qakL64mO-A8GvS-2" target="Kgd_H5qakL64mO-A8GvS-13" edge="1">
          <mxGeometry relative="1" as="geometry" />
        </mxCell>
        <mxCell id="Kgd_H5qakL64mO-A8GvS-18" value="владеет" style="edgeLabel;html=1;align=center;verticalAlign=middle;resizable=0;points=[];rotation=-25;" parent="Kgd_H5qakL64mO-A8GvS-16" vertex="1" connectable="0">
          <mxGeometry x="0.1058" y="-1" relative="1" as="geometry">
            <mxPoint x="-11" y="-11" as="offset" />
          </mxGeometry>
        </mxCell>
        <mxCell id="Kgd_H5qakL64mO-A8GvS-20" style="rounded=0;orthogonalLoop=1;jettySize=auto;html=1;entryX=0;entryY=0;entryDx=0;entryDy=0;endArrow=none;endFill=0;exitX=0.5;exitY=1;exitDx=0;exitDy=0;" parent="1" source="Kgd_H5qakL64mO-A8GvS-48" target="Kgd_H5qakL64mO-A8GvS-4" edge="1">
          <mxGeometry relative="1" as="geometry" />
        </mxCell>
        <mxCell id="Kgd_H5qakL64mO-A8GvS-28" style="rounded=0;orthogonalLoop=1;jettySize=auto;html=1;entryX=0.5;entryY=1;entryDx=0;entryDy=0;endArrow=none;endFill=0;" parent="1" source="Kgd_H5qakL64mO-A8GvS-2" target="Kgd_H5qakL64mO-A8GvS-6" edge="1">
          <mxGeometry relative="1" as="geometry" />
        </mxCell>
        <mxCell id="Kgd_H5qakL64mO-A8GvS-30" style="rounded=0;orthogonalLoop=1;jettySize=auto;html=1;entryX=0.5;entryY=1;entryDx=0;entryDy=0;endArrow=none;endFill=0;" parent="1" source="Kgd_H5qakL64mO-A8GvS-2" target="Kgd_H5qakL64mO-A8GvS-32" edge="1">
          <mxGeometry relative="1" as="geometry" />
        </mxCell>
        <mxCell id="Kgd_H5qakL64mO-A8GvS-2" value="УЧАСТНИК" style="whiteSpace=wrap;html=1;" parent="1" vertex="1">
          <mxGeometry x="440" y="300" width="120" height="60" as="geometry" />
        </mxCell>
        <mxCell id="Kgd_H5qakL64mO-A8GvS-22" style="rounded=0;orthogonalLoop=1;jettySize=auto;html=1;entryX=0;entryY=0;entryDx=0;entryDy=0;endArrow=none;endFill=0;" parent="1" source="Kgd_H5qakL64mO-A8GvS-3" target="Kgd_H5qakL64mO-A8GvS-36" edge="1">
          <mxGeometry relative="1" as="geometry" />
        </mxCell>
        <mxCell id="Kgd_H5qakL64mO-A8GvS-3" value="МУЗЫКАЛЬНЫЙ ИНСТРУМЕНТ" style="whiteSpace=wrap;html=1;" parent="1" vertex="1">
          <mxGeometry x="230" y="480" width="120" height="60" as="geometry" />
        </mxCell>
        <mxCell id="Kgd_H5qakL64mO-A8GvS-4" value="ПРОИЗВЕДЕНИЕ" style="whiteSpace=wrap;html=1;" parent="1" vertex="1">
          <mxGeometry x="580" y="480" width="120" height="60" as="geometry" />
        </mxCell>
        <mxCell id="Kgd_H5qakL64mO-A8GvS-5" value="МЕРОПРИЯТИЕ" style="whiteSpace=wrap;html=1;" parent="1" vertex="1">
          <mxGeometry x="580" y="620" width="120" height="60" as="geometry" />
        </mxCell>
        <mxCell id="Kgd_H5qakL64mO-A8GvS-35" style="rounded=0;orthogonalLoop=1;jettySize=auto;html=1;entryX=1;entryY=0.5;entryDx=0;entryDy=0;endArrow=none;endFill=0;" parent="1" source="Kgd_H5qakL64mO-A8GvS-6" target="Kgd_H5qakL64mO-A8GvS-32" edge="1">
          <mxGeometry relative="1" as="geometry" />
        </mxCell>
        <mxCell id="Kgd_H5qakL64mO-A8GvS-45" style="edgeStyle=orthogonalEdgeStyle;rounded=0;orthogonalLoop=1;jettySize=auto;html=1;entryX=0.5;entryY=0;entryDx=0;entryDy=0;endArrow=none;endFill=0;" parent="1" source="Kgd_H5qakL64mO-A8GvS-46" target="Kgd_H5qakL64mO-A8GvS-4" edge="1">
          <mxGeometry relative="1" as="geometry" />
        </mxCell>
        <mxCell id="Kgd_H5qakL64mO-A8GvS-6" value="РЕПЕТИЦИЯ" style="whiteSpace=wrap;html=1;" parent="1" vertex="1">
          <mxGeometry x="440" y="150" width="120" height="60" as="geometry" />
        </mxCell>
        <mxCell id="Kgd_H5qakL64mO-A8GvS-12" style="rounded=0;orthogonalLoop=1;jettySize=auto;html=1;entryX=0;entryY=0.5;entryDx=0;entryDy=0;endArrow=none;endFill=0;" parent="1" source="Kgd_H5qakL64mO-A8GvS-10" target="Kgd_H5qakL64mO-A8GvS-2" edge="1">
          <mxGeometry relative="1" as="geometry" />
        </mxCell>
        <mxCell id="Kgd_H5qakL64mO-A8GvS-10" value="включил в состав" style="rhombus;whiteSpace=wrap;html=1;" parent="1" vertex="1">
          <mxGeometry x="245" y="305" width="90" height="50" as="geometry" />
        </mxCell>
        <mxCell id="Kgd_H5qakL64mO-A8GvS-14" style="rounded=0;orthogonalLoop=1;jettySize=auto;html=1;entryX=0.5;entryY=0;entryDx=0;entryDy=0;endArrow=none;endFill=0;" parent="1" source="Kgd_H5qakL64mO-A8GvS-13" target="Kgd_H5qakL64mO-A8GvS-3" edge="1">
          <mxGeometry relative="1" as="geometry" />
        </mxCell>
        <mxCell id="Kgd_H5qakL64mO-A8GvS-13" value="" style="rhombus;whiteSpace=wrap;html=1;" parent="1" vertex="1">
          <mxGeometry x="270" y="420" width="40" height="30" as="geometry" />
        </mxCell>
        <mxCell id="Kgd_H5qakL64mO-A8GvS-32" value="отмечает" style="rhombus;whiteSpace=wrap;html=1;" parent="1" vertex="1">
          <mxGeometry x="250" y="210" width="80" height="40" as="geometry" />
        </mxCell>
        <mxCell id="Kgd_H5qakL64mO-A8GvS-37" style="rounded=0;orthogonalLoop=1;jettySize=auto;html=1;entryX=0;entryY=0.5;entryDx=0;entryDy=0;endArrow=none;endFill=0;exitX=1;exitY=0;exitDx=0;exitDy=0;" parent="1" source="Kgd_H5qakL64mO-A8GvS-36" target="Kgd_H5qakL64mO-A8GvS-4" edge="1">
          <mxGeometry relative="1" as="geometry" />
        </mxCell>
        <mxCell id="Kgd_H5qakL64mO-A8GvS-38" style="rounded=0;orthogonalLoop=1;jettySize=auto;html=1;entryX=0;entryY=0.5;entryDx=0;entryDy=0;endArrow=none;endFill=0;" parent="1" source="Kgd_H5qakL64mO-A8GvS-36" target="Kgd_H5qakL64mO-A8GvS-5" edge="1">
          <mxGeometry relative="1" as="geometry" />
        </mxCell>
        <mxCell id="Kgd_H5qakL64mO-A8GvS-36" value="используется в" style="rhombus;whiteSpace=wrap;html=1;" parent="1" vertex="1">
          <mxGeometry x="410" y="530" width="100" height="60" as="geometry" />
        </mxCell>
        <mxCell id="Kgd_H5qakL64mO-A8GvS-40" value="" style="rounded=0;orthogonalLoop=1;jettySize=auto;html=1;entryX=0.5;entryY=0;entryDx=0;entryDy=0;endArrow=none;endFill=0;" parent="1" target="Kgd_H5qakL64mO-A8GvS-39" edge="1">
          <mxGeometry relative="1" as="geometry">
            <mxPoint x="639.6599999999997" y="540" as="sourcePoint" />
            <mxPoint x="639.6599999999997" y="600" as="targetPoint" />
          </mxGeometry>
        </mxCell>
        <mxCell id="Kgd_H5qakL64mO-A8GvS-41" style="rounded=0;orthogonalLoop=1;jettySize=auto;html=1;entryX=0.5;entryY=0;entryDx=0;entryDy=0;endArrow=none;endFill=0;" parent="1" source="Kgd_H5qakL64mO-A8GvS-39" target="Kgd_H5qakL64mO-A8GvS-5" edge="1">
          <mxGeometry relative="1" as="geometry" />
        </mxCell>
        <mxCell id="Kgd_H5qakL64mO-A8GvS-39" value="подготавливается для" style="rhombus;whiteSpace=wrap;html=1;" parent="1" vertex="1">
          <mxGeometry x="560" y="560" width="160" height="40" as="geometry" />
        </mxCell>
        <mxCell id="Kgd_H5qakL64mO-A8GvS-42" value="назначено" style="rhombus;whiteSpace=wrap;html=1;" parent="1" vertex="1">
          <mxGeometry x="455" y="240" width="90" height="50" as="geometry" />
        </mxCell>
        <mxCell id="Kgd_H5qakL64mO-A8GvS-43" value="1" style="text;html=1;align=center;verticalAlign=middle;resizable=0;points=[];autosize=1;strokeColor=none;fillColor=none;" parent="1" vertex="1">
          <mxGeometry x="410" y="355" width="30" height="30" as="geometry" />
        </mxCell>
        <mxCell id="Kgd_H5qakL64mO-A8GvS-44" value="M" style="text;html=1;align=center;verticalAlign=middle;resizable=0;points=[];autosize=1;strokeColor=none;fillColor=none;" parent="1" vertex="1">
          <mxGeometry x="300" y="410" width="30" height="30" as="geometry" />
        </mxCell>
        <mxCell id="Kgd_H5qakL64mO-A8GvS-47" value="" style="edgeStyle=orthogonalEdgeStyle;rounded=0;orthogonalLoop=1;jettySize=auto;html=1;entryX=0.5;entryY=0;entryDx=0;entryDy=0;endArrow=none;endFill=0;" parent="1" source="Kgd_H5qakL64mO-A8GvS-6" target="Kgd_H5qakL64mO-A8GvS-46" edge="1">
          <mxGeometry relative="1" as="geometry">
            <mxPoint x="560" y="200" as="sourcePoint" />
            <mxPoint x="640" y="480" as="targetPoint" />
          </mxGeometry>
        </mxCell>
        <mxCell id="Kgd_H5qakL64mO-A8GvS-46" value="отрабатывает" style="rhombus;whiteSpace=wrap;html=1;" parent="1" vertex="1">
          <mxGeometry x="595" y="240" width="90" height="50" as="geometry" />
        </mxCell>
        <mxCell id="Kgd_H5qakL64mO-A8GvS-50" value="" style="rounded=0;orthogonalLoop=1;jettySize=auto;html=1;entryX=0.5;entryY=0;entryDx=0;entryDy=0;endArrow=none;endFill=0;exitX=0.75;exitY=1;exitDx=0;exitDy=0;" parent="1" source="Kgd_H5qakL64mO-A8GvS-2" target="Kgd_H5qakL64mO-A8GvS-48" edge="1">
          <mxGeometry relative="1" as="geometry">
            <mxPoint x="530" y="360" as="sourcePoint" />
            <mxPoint x="640" y="480" as="targetPoint" />
          </mxGeometry>
        </mxCell>
        <mxCell id="Kgd_H5qakL64mO-A8GvS-48" value="играет" style="rhombus;whiteSpace=wrap;html=1;" parent="1" vertex="1">
          <mxGeometry x="490" y="410" width="80" height="40" as="geometry" />
        </mxCell>
        <mxCell id="rgyhX-QTA8C1OrFVMClK-1" value="МУЗЫКАЛЬНЫЙ АНСАМБЛЬ" style="whiteSpace=wrap;html=1;" vertex="1" parent="1">
          <mxGeometry x="230" y="620" width="120" height="60" as="geometry" />
        </mxCell>
      </root>
    </mxGraphModel>
  </diagram>
</mxfile>
